<svg xmlns="http://www.w3.org/2000/svg" viewBox="0 0 512 512">
  <defs>
    <radialGradient id="sky" cx="50%" cy="20%" r="80%">
      <stop offset="0%" stop-color="#2a3a6a"/>
      <stop offset="60%" stop-color="#1a2a52"/>
      <stop offset="100%" stop-color="#0f1424"/>
    </radialGradient>
    <linearGradient id="sun" x1="0" y1="0" x2="0" y2="1">
      <stop offset="0%" stop-color="#ffe680"/>
      <stop offset="100%" stop-color="#ff6b3d"/>
    </linearGradient>
  </defs>
  <rect width="512" height="512" rx="112" fill="url(#sky)"/>
  <circle cx="360" cy="180" r="70" fill="url(#sun)" opacity="0.95"/>
  <!-- runner silhouette -->
  <g fill="#7dff9e">
    <rect x="180" y="240" width="60" height="90" rx="16"/>
    <circle cx="210" cy="220" r="30"/>
    <rect x="168" y="330" width="26" height="60" rx="10"/>
    <rect x="220" y="330" width="26" height="60" rx="10"/>
    <rect x="150" y="270" width="30" height="20" rx="8"/>
  </g>
  <!-- scarf -->
  <path d="M240 250 Q290 240 320 270 Q290 280 250 275 Z" fill="#ff6b8a"/>
  <!-- ground line -->
  <rect x="80" y="390" width="352" height="6" rx="3" fill="#4fd1ff"/>
  <!-- speed streaks -->
  <rect x="90" y="290" width="50" height="6" rx="3" fill="#8bf3ff" opacity="0.6"/>
  <rect x="70" y="310" width="80" height="6" rx="3" fill="#8bf3ff" opacity="0.4"/>
</svg>